<?xml version="1.0" encoding="UTF-8"?>
<svg width="194px" height="50px" viewBox="0 0 194 50" version="1.1" xmlns="http://www.w3.org/2000/svg" xmlns:xlink="http://www.w3.org/1999/xlink">
    <!-- Generator: Sketch 52.3 (67297) - http://www.bohemiancoding.com/sketch -->
    <title>logo-header</title>
    <desc>Created with Sketch.</desc>
    <defs>
        <polygon id="path-1" points="0 49.9222222 191.975406 49.9222222 191.975406 0 0 0"></polygon>
    </defs>
    <g id="Symbols" stroke="none" stroke-width="1" fill="none" fill-rule="evenodd">
        <g id="logo-header">
            <g transform="translate(1.000000, 0.000000)" id="Group-25">
                <g>
                    <path d="M107.166804,25.2181301 C106.694753,24.6659621 106.104758,24.3899458 105.396817,24.3899458 C104.743229,24.3899458 104.189513,24.6636585 103.73567,25.211355 C103.281828,25.758916 103.054906,26.6165041 103.054906,27.7842547 C103.054906,29.0514634 103.272724,29.9498374 103.708494,30.4793767 C104.144129,31.0087805 104.684121,31.2735501 105.328741,31.2735501 C106.063857,31.2735501 106.672061,30.9975339 107.15308,30.4453659 C107.634099,29.8933333 107.874745,29.0469919 107.874745,27.906477 C107.874745,26.6663686 107.638855,25.7702981 107.166804,25.2181301 Z M107.833845,35.2969919 L107.833845,33.6769377 C107.280265,34.2471274 106.651679,34.6770732 105.948087,34.9666396 C105.24463,35.2563415 104.466303,35.4011924 103.613106,35.4011924 C101.852223,35.4011924 100.395305,34.7697561 99.2426259,33.5071545 C98.0898106,32.2444173 97.513403,30.413794 97.513403,28.0151491 C97.513403,25.8426558 98.0421163,24.0188076 99.099679,22.5434688 C100.157106,21.0679946 101.652477,20.3303252 103.585794,20.3303252 C104.566176,20.3303252 105.460273,20.5429268 106.268223,20.9684011 C106.867186,21.2852033 107.525394,21.8917073 108.242303,22.7877778 L108.242303,20.6560705 L113.429836,20.6560705 L113.429836,35.2969919 L107.833845,35.2969919 Z" id="Fill-1" fill="#FEFEFE"></path>
                    <mask id="mask-2" fill="white">
                        <use xlink:href="#path-1"></use>
                    </mask>
                    <g id="Clip-4"></g>
                    <polygon id="Fill-3" fill="#FEFEFE" mask="url(#mask-2)" points="42.6722378 35.0753388 48.213741 35.0753388 48.213741 20.6560976 42.6722378 20.6560976"></polygon>
                    <path d="M51.7946021,20.656084 L56.968411,20.656084 L56.968411,22.7605556 C57.7139907,21.8826423 58.4662285,21.257981 59.2252603,20.8869783 C59.9842921,20.5158401 60.8999949,20.3303388 61.9720968,20.3303388 C63.1270862,20.3303388 64.0406149,20.5339973 64.7133622,20.9411789 C65.3861096,21.3484959 65.936428,21.955 66.3630947,22.7605556 C67.2334132,21.8192276 68.0264153,21.1788482 68.7425087,20.8395528 C69.4583304,20.4999864 70.3422369,20.3303388 71.3939567,20.3303388 C72.9438166,20.3303388 74.1546531,20.7895528 75.0248357,21.7083875 C75.8939312,22.6270867 76.329566,24.0640786 76.329566,26.0192276 L76.329566,35.0753252 L70.7746106,35.0753252 L70.7746106,26.8609621 C70.7746106,26.2092005 70.6474259,25.7250542 70.3944153,25.408252 C70.023324,24.9102846 69.5628229,24.6615041 69.0101945,24.6615041 C68.3589163,24.6615041 67.834687,24.8968699 67.4364195,25.3676016 C67.0382879,25.8381978 66.8397656,26.5938889 66.8397656,27.6349458 L66.8397656,35.0753252 L61.2845384,35.0753252 L61.2845384,27.1325068 C61.2845384,26.4989024 61.2482582,26.0689566 61.1756977,25.8426694 C61.0565299,25.4806098 60.8523006,25.1887398 60.5606998,24.9669241 C60.2690989,24.7452439 59.9276297,24.6342683 59.5361563,24.6342683 C58.8984662,24.6342683 58.3742369,24.8742412 57.9646913,25.353916 C57.5551456,25.8335908 57.3496934,26.6211247 57.3496934,27.7163821 L57.3496934,35.0753252 L51.7946021,35.0753252 L51.7946021,20.656084 Z" id="Fill-5" fill="#FEFEFE" mask="url(#mask-2)"></path>
                    <path d="M85.220552,27.9064634 C85.220552,29.0469783 85.4610616,29.8933198 85.9422166,30.4453523 C86.4232357,30.9975203 87.0313036,31.2736721 87.7665563,31.2736721 C88.4110403,31.2736721 88.9511677,31.0089024 89.3868025,30.4793631 C89.8225732,29.9498238 90.0403907,29.0514499 90.0403907,27.7843767 C90.0403907,26.6164905 89.8134692,25.7589024 89.3596263,25.2113415 C88.9057834,24.663645 88.3520679,24.3899322 87.6984798,24.3899322 C86.9904034,24.3899322 86.4005435,24.6659485 85.9284926,25.2181165 C85.4564416,25.7702846 85.220552,26.6664905 85.220552,27.9064634 Z M79.6653248,40.560664 L79.6653248,20.6560569 L84.8528577,20.6560569 L84.8528577,22.7878997 C85.5699023,21.8916938 86.2281104,21.2851897 86.8270743,20.9683875 C87.6350234,20.5429133 88.529121,20.3303117 89.5093673,20.3303117 C91.4428195,20.3303117 92.9381911,21.067981 93.9956178,22.5434553 C95.0530446,24.0189295 95.5818938,25.8427778 95.5818938,28.0151355 C95.5818938,30.4137805 95.0054862,32.2445393 93.8526709,33.5071409 C92.6999915,34.7697425 91.2430743,35.4013144 89.4820552,35.4013144 C88.6288577,35.4013144 87.8505308,35.2563279 87.1470743,34.966626 C86.4436178,34.6770596 85.8150318,34.2471138 85.2614522,33.6769241 L85.2614522,40.560664 L79.6653248,40.560664 Z" id="Fill-6" fill="#FEFEFE" mask="url(#mask-2)"></path>
                    <path d="M127.619044,29.4271409 L132.888105,30.0245664 C132.597727,31.1196883 132.121192,32.0679268 131.458636,32.8688753 C130.795944,33.6699593 129.949405,34.2923171 128.91929,34.7359485 C127.889039,35.1794444 126.579689,35.4012602 124.991239,35.4012602 C123.457141,35.4012602 122.179723,35.2585772 121.158441,34.9734824 C120.137294,34.6883875 119.259231,34.2290379 118.523842,33.5909621 C117.788589,32.9527507 117.212318,32.2036992 116.794755,31.3461111 C116.377192,30.486084 116.168343,29.3455691 116.168343,27.9268699 C116.168343,26.4446206 116.422577,25.2091192 116.930908,24.2225339 C117.303086,23.5005827 117.811282,22.8511247 118.455766,22.2764634 C119.100386,21.7015312 119.762942,21.2761924 120.44357,20.9955691 C121.523825,20.5520732 122.908046,20.3302575 124.596369,20.3302575 C126.956352,20.3302575 128.755825,20.7512602 129.994789,21.5929946 C131.234025,22.434729 132.102984,23.6657588 132.602211,25.2859485 L127.387502,25.9784959 C127.224173,25.3629133 126.926865,24.8990921 126.495715,24.5867615 C126.0647,24.2745664 125.485982,24.1183333 124.759698,24.1183333 C123.843044,24.1183333 123.100997,24.4465176 122.533558,25.1004472 C121.966254,25.7566802 121.68267,26.7478726 121.68267,28.0761924 C121.68267,29.2596612 121.96408,30.1580352 122.526763,30.7736179 C123.089583,31.3867615 123.806628,31.6944851 124.678033,31.6944851 C125.404182,31.6944851 126.01456,31.5089837 126.509303,31.1378455 C127.004046,30.7668428 127.373914,30.1965176 127.619044,29.4271409" id="Fill-7" fill="#FEFEFE" mask="url(#mask-2)"></path>
                    <polygon id="Fill-8" fill="#FEFEFE" mask="url(#mask-2)" points="131.396375 16.4200678 131.396375 20.5219648 137.686719 20.5219648 137.686719 35.0753523 140.662787 35.0753523 140.662787 16.4200678"></polygon>
                    <path d="M160.574329,26.1149051 C160.117225,24.3708672 159.014549,23.498916 157.265624,23.498916 C156.867492,23.498916 156.493547,23.5594851 156.143518,23.6803523 C155.79376,23.8017615 155.475526,23.9762873 155.188953,24.2039295 C154.902108,24.4317073 154.656978,24.7050136 154.453021,25.0250678 C154.248927,25.3447154 154.093208,25.7078591 153.986541,26.1149051 L160.574329,26.1149051 Z M163.940647,28.7888889 L153.767908,28.7888889 C153.855416,29.9517615 154.234524,30.8772358 154.904554,31.5651762 C155.575263,32.2433604 156.434983,32.5825203 157.484256,32.5825203 C158.300494,32.5825203 158.975687,32.3888889 159.510244,32.001084 C160.034745,31.6136856 160.632486,30.896477 161.302923,29.8501355 L164.072044,31.3907859 C163.644426,32.1173442 163.192486,32.7401084 162.716494,33.2581301 C162.240503,33.7765583 161.730405,34.20271 161.186473,34.5372629 C160.641862,34.8714092 160.054448,35.1162602 159.4226,35.2711382 C158.790889,35.4261518 158.106184,35.503523 157.36767,35.503523 C155.249556,35.503523 153.549411,34.8254743 152.266558,33.4688347 C150.984248,32.10271 150.343025,30.2910569 150.343025,28.0333333 C150.343025,25.7952575 150.964681,23.9834688 152.208537,22.597832 C153.461768,21.2314363 155.123322,20.548645 157.193063,20.548645 C159.281828,20.548645 160.933462,21.2121951 162.148239,22.5395664 C163.352825,23.8574526 163.955594,25.6840108 163.955594,28.0189702 L163.940647,28.7888889 Z" id="Fill-9" fill="#31C0E3" mask="url(#mask-2)"></path>
                    <polygon id="Fill-10" fill="#D0D2D3" mask="url(#mask-2)" points="19.3240594 -6.77506775e-05 3.75738429 8.96226287 3.75738429 14.520935 19.3240594 5.55860434 19.3262335 5.55589431 19.3262335 0.00277777778"></polygon>
                    <path d="M178.029873,21.5515312 L178.029873,25.8967886 C177.281576,24.986355 176.611003,24.3614228 176.018425,24.0221274 C175.435767,23.6730759 174.750655,23.4989566 173.963496,23.4989566 C172.729423,23.4989566 171.704472,23.9302575 170.888234,24.7923171 C170.072268,25.6550542 169.664082,26.735 169.664082,28.033374 C169.664082,29.3610163 170.057593,30.4511247 170.844752,31.3034282 C171.641287,32.1561382 172.656863,32.582561 173.890935,32.582561 C174.677687,32.582561 175.372175,32.4130488 175.974944,32.0738889 C176.558009,31.7444851 177.242714,31.1050542 178.029873,30.1553252 L178.029873,34.4718564 C176.69851,35.1596612 175.367419,35.5035637 174.036464,35.5035637 C171.840625,35.5035637 170.004328,34.7965176 168.5273,33.3816125 C167.050273,31.9576287 166.312302,30.189336 166.312302,28.0771409 C166.312302,25.9649458 167.060192,24.1818835 168.556651,22.7286314 C170.052566,21.2752439 171.888999,20.5486856 174.065542,20.5486856 C175.46471,20.5486856 176.786018,20.882832 178.029873,21.5515312" id="Fill-11" fill="#31C0E3" mask="url(#mask-2)"></path>
                    <polygon id="Fill-12" fill="#FEFEFE" mask="url(#mask-2)" points="34.8905444 8.96392954 34.8905444 14.5235501 19.3261792 5.55593496 19.3261792 0.00268292683"></polygon>
                    <path d="M180.521783,16.4200678 L183.597045,16.4200678 L183.597045,22.9505556 C184.690752,21.9693902 185.897648,21.4787398 187.219091,21.4787398 C188.722752,21.4787398 189.925299,21.9649187 190.827686,22.9371409 C191.592832,23.7821274 191.975473,25.1314499 191.975473,26.9849729 L191.975473,35.1219648 L188.900076,35.1219648 L188.900076,27.2711518 C188.900076,26.2081436 188.711202,25.4380894 188.33318,24.9609892 C187.954887,24.4840244 187.346548,24.2456775 186.508569,24.2456775 C185.43307,24.2456775 184.676756,24.5772493 184.23949,25.2405285 C183.811193,25.9131572 183.597045,27.0668157 183.597045,28.7024526 L183.597045,35.1219648 L180.521783,35.1219648 L180.521783,16.4200678 Z" id="Fill-13" fill="#31C0E3" mask="url(#mask-2)"></path>
                    <polygon id="Fill-14" fill="#31C0E3" mask="url(#mask-2)" points="142.986476 16.4200678 142.986476 35.0753523 146.178188 35.0753523 146.178188 20.5219648 152.468532 20.5219648 152.468532 16.4200678"></polygon>
                    <polygon id="Fill-15" fill="#31C0E3" mask="url(#mask-2)" points="36.6349588 37.6379404 19.3239779 47.6044715 2.01286115 37.6379404 2.01286115 17.7047425 19.3239779 7.73807588 36.6349588 17.7047425"></polygon>
                    <path d="M38.2992442,22.6822493 L38.2992442,16.7466125 L19.3239915,5.82168022 L0.348602972,16.7466125 L0.348602972,38.595935 L19.3239915,49.5208672 L38.2992442,38.595935 L38.2992442,22.6822493 Z M19.3239915,49.9222222 L6.7940552e-05,38.797019 L6.7940552e-05,16.545664 L0.0871677282,16.495664 L19.3239915,5.4203252 L38.6479151,16.545664 L38.6479151,38.797019 L38.5608153,38.8468835 L19.3239915,49.9222222 Z" id="Fill-16" fill="#31C0E3" mask="url(#mask-2)"></path>
                    <polygon id="Fill-17" fill="#231F20" mask="url(#mask-2)" points="34.8929223 18.9034282 34.8929223 36.8279539 34.8654743 36.8450271 32.3098225 38.3160298 32.3064255 38.3160298 30.1658904 39.5508537 24.9896357 42.5302575 19.3261113 45.7902846 13.6284807 42.5097967 8.45901996 39.5337805 6.31155499 38.2954336 3.75943609 36.8279539 3.75943609 18.9034282 4.18134692 18.6606098 6.17091805 17.5146748 9.00784374 15.8829675 19.3261113 9.94109756 29.6719626 15.8966531 32.4814403 17.5146748 34.4984594 18.6776829"></polygon>
                    <polygon id="Fill-18" fill="#FEFEFE" mask="url(#mask-2)" points="34.8908025 22.6290515 34.8908025 31.0542547 19.3720934 22.1192954 3.75745223 31.1056098 3.75745223 22.6836585 19.3720934 13.6942276"></polygon>
                    <polygon id="Fill-19" fill="#FEFEFE" mask="url(#mask-2)" points="32.3044144 38.1214634 30.1638794 39.3562873 24.9874887 42.3358266 19.2898582 39.0553388 13.6263338 42.3152304 8.45687304 39.3392141 6.30954395 38.1010027 19.2898582 30.6301355"></polygon>
                    <polygon id="Fill-20" fill="#231F20" mask="url(#mask-2)" points="19.3261792 39.0780488 19.3261792 45.598374 13.6255592 42.3153117 19.2866378 39.0582656"></polygon>
                    <polygon id="Fill-21" fill="#231F20" mask="url(#mask-2)" points="19.3261792 22.1492412 19.3261792 30.6497832 19.2866378 30.6301355 6.30849766 38.0977507 3.75515584 36.630542 3.75515584 31.1038482"></polygon>
                    <polygon id="Fill-22" fill="#231F20" mask="url(#mask-2)" points="19.3261792 9.74689702 19.3261792 13.7208808 3.75515584 22.6821274 3.75515584 18.7081436 4.17747431 18.4647832 6.17003482 17.3199322 9.00709639 15.6882249"></polygon>
                    <polygon id="Fill-23" fill="#D0D2D3" mask="url(#mask-2)" points="19.3261792 13.7208943 19.3261792 22.1492141 3.75515584 31.1038211 3.75515584 22.6821409"></polygon>
                    <polygon id="Fill-24" fill="#D0D2D3" mask="url(#mask-2)" points="19.3261792 30.6498374 19.3261792 39.0780217 19.2866378 39.058374 13.6255592 42.3152846 8.45935966 39.3413008 6.30849766 38.0978049 19.2866378 30.6300542"></polygon>
                </g>
            </g>
        </g>
    </g>
</svg>